<?xml version="1.0" standalone="no"?>
<!DOCTYPE svg PUBLIC "-//W3C//DTD SVG 20010904//EN"
 "http://www.w3.org/TR/2001/REC-SVG-20010904/DTD/svg10.dtd">
<svg version="1.0" xmlns="http://www.w3.org/2000/svg"
 width="1000.000000pt" height="1000.000000pt" viewBox="0 0 1000.000000 1000.000000"
 preserveAspectRatio="xMidYMid meet">
<metadata>
Created by potrace 1.14, written by Peter Selinger 2001-2017
</metadata>
<g transform="translate(0.000000,1000.000000) scale(0.100000,-0.100000)"
fill="#000000" stroke="none">
<path d="M2607 6623 c-1 0 -54 -4 -117 -8 -63 -3 -122 -8 -130 -10 -8 -2 -40
-7 -70 -10 -83 -9 -312 -53 -425 -81 -250 -63 -563 -188 -727 -291 -21 -13
-42 -23 -48 -23 -5 0 -10 -4 -10 -10 0 -5 -5 -10 -11 -10 -12 0 -178 -116
-244 -171 -81 -67 -215 -206 -268 -276 -62 -83 -67 -115 -26 -146 33 -24 33
-24 142 77 47 43 96 86 110 95 294 200 499 295 810 375 152 39 156 40 282 61
155 24 193 29 351 40 62 5 333 5 399 1 144 -10 232 -17 245 -21 8 -2 38 -6 65
-10 81 -10 334 -62 410 -85 254 -77 456 -167 640 -287 55 -36 102 -69 105 -72
3 -4 15 -14 28 -23 36 -25 143 -129 193 -188 90 -108 157 -230 194 -360 26
-89 27 -288 1 -380 -67 -243 -261 -479 -541 -656 -521 -331 -1286 -465 -2035
-358 -101 15 -327 61 -343 71 -4 2 -20 7 -35 9 -35 7 -244 75 -257 84 -5 4
-21 11 -35 15 -70 22 -350 167 -358 187 -2 4 -8 8 -13 8 -13 0 -109 72 -189
141 -95 82 -118 91 -154 64 -44 -33 -16 -89 115 -229 204 -218 532 -427 869
-555 111 -41 342 -110 445 -132 33 -7 62 -13 65 -14 3 -1 25 -5 50 -9 25 -5
54 -10 64 -12 11 -2 56 -8 100 -14 45 -6 95 -13 111 -15 164 -23 676 -23 804
0 9 1 43 6 76 10 33 4 69 9 80 10 121 16 508 103 537 122 5 2 16 6 25 8 35 7
197 67 301 111 306 131 540 281 750 482 30 28 58 52 62 52 4 0 32 -24 61 -52
303 -295 774 -536 1287 -658 126 -30 211 -48 268 -56 27 -3 58 -8 69 -10 11
-2 43 -7 70 -10 28 -3 64 -7 81 -9 177 -24 628 -24 799 0 17 3 68 9 115 15
674 87 1323 404 1653 808 80 97 90 136 43 162 -34 18 -55 7 -148 -71 -365
-310 -886 -498 -1503 -544 -72 -5 -346 -6 -430 0 -175 10 -312 28 -475 60 -41
9 -86 17 -99 20 -13 2 -38 9 -56 15 -18 6 -43 13 -56 15 -146 28 -531 196
-646 281 -17 13 -35 24 -38 24 -4 0 -34 21 -68 47 -307 235 -459 498 -453 783
3 129 24 217 82 335 184 377 660 682 1279 819 98 21 138 29 225 41 371 54 759
47 1130 -21 94 -17 314 -70 345 -84 11 -5 38 -14 60 -21 76 -23 250 -97 350
-149 162 -85 285 -173 408 -290 78 -74 84 -76 116 -52 57 43 20 112 -159 293
-364 370 -934 626 -1590 713 -216 29 -564 39 -760 22 -149 -12 -291 -29 -355
-42 -11 -2 -33 -6 -50 -8 -113 -15 -369 -81 -530 -136 -252 -87 -474 -194
-671 -325 -99 -66 -287 -214 -296 -233 -2 -4 -15 -18 -30 -31 l-28 -24 -53 49
c-131 121 -193 170 -328 258 -201 130 -440 241 -703 325 -142 45 -344 97 -419
107 -15 1 -31 5 -35 8 -4 2 -34 7 -66 11 -33 3 -62 8 -65 9 -3 2 -37 7 -74 11
-37 3 -77 8 -87 10 -60 11 -553 28 -563 18z"/>
</g>
</svg>
